Coordinates
version=1
nRows=11
nColumns=42
inDegrees=yes
Units are S.I. units (second, meters, Newtons, ...)
If the header above contains a line with 'inDegrees', this indicates whether rotational values are in degrees (yes) or radians (no).
endheader
time	pelvis_tilt	pelvis_list	pelvis_rotation	pelvis_tx	pelvis_ty	pelvis_tz	hip_flexion_r	hip_adduction_r	hip_rotation_r	knee_angle_r	knee_adduction_r	knee_angle_r_beta	ankle_angle_r	subtalar_angle_r	mtp_angle_r	hip_flexion_l	hip_adduction_l	hip_rotation_l	knee_angle_l	knee_adduction_l	knee_angle_l_beta	ankle_angle_l	subtalar_angle_l	mtp_angle_l	lumbar_extension	lumbar_bending	lumbar_rotation	arm_flex_r	arm_add_r	arm_rot_r	elbow_flex_r	pro_sup_r	wrist_flex_r	wrist_dev_r	arm_flex_l	arm_add_l	arm_rot_l	elbow_flex_l	pro_sup_l	wrist_flex_l	wrist_dev_l
    0.38500000000000	  -24.78694717582075	   -3.05217671520754	   -6.54424718330050	   -0.28285617370459	    0.87233612167278	    0.39580333178001	   38.75544865959297	    1.64406181075652	    0.36179336918951	   44.46234399094038	    5.85288448000000	    0.77601429498653	   25.64427519132740	    2.57075457292397	    0.00000000000000	   39.71228133795246	  -15.37265340741398	   -4.57640074289294	   79.84921352924509	    4.70865390000000	    1.39363168067975	    8.37238872826639	  -13.38853990524021	  -10.00000000000000	  -10.48860549043136	   10.44228136749219	    1.03879910407632	   -3.93655419790811	  -11.93707425393061	  -25.23756335321955	   78.57489444390578	   90.00000000999999	    0.00000000000000	    0.00000000000000	  -37.27758752769254	  -62.97760957550386	  -42.15999718936970	   35.01698800895186	   90.00000000999999	    0.00000000000000	    0.00000000000000	
    0.39000000000000	  -25.26551387611880	   -2.86417983925846	   -6.61786841014485	   -0.27703284524447	    0.87486019550124	    0.39532477127417	   38.04745648928728	    1.54843501463216	    0.39641729339084	   42.73725081304488	    5.85288448000000	    0.74590573915552	   25.21469399232830	    3.00659020754091	    0.00000000000000	   41.21089914228219	  -15.20306171364785	   -4.29759783663216	   79.66647456723180	    4.70865390000000	    1.39044228417368	    8.88867353914523	  -13.47444205491581	  -10.00000000000000	  -10.22503228553774	   10.14528042566032	    1.12708431210568	   -3.68730680238373	  -12.21675694409917	  -25.01006775021990	   79.30928221101925	   90.00000000999999	    0.00000000000000	    0.00000000000000	  -39.32868063465462	  -62.48918461842763	  -43.57155195122836	   34.78649502087424	   90.00000000999999	    0.00000000000000	    0.00000000000000	
    0.39500000000000	  -25.75283475729985	   -2.66866762812088	   -6.68687025748156	   -0.27113140422842	    0.87763378872784	    0.39476207835144	   37.31283499938685	    1.42432274052627	    0.35434254075835	   40.93091548002606	    5.85288448000000	    0.71437924022386	   24.66614052486827	    3.52195019071950	    0.00000000000000	   42.64850923600413	  -15.02022739475387	   -4.07848047901219	   79.24530628390187	    4.70865390000000	    1.38309151097494	    9.41582484050526	  -13.52258785440197	  -10.00000000000000	   -9.95376972457524	    9.84022208098109	    1.21414315178841	   -3.44127763435558	  -12.48686061834142	  -24.79710183574002	   80.03060164819208	   90.00000000999999	    0.00000000000000	    0.00000000000000	  -41.30414380022835	  -61.92338322419715	  -44.92036226892520	   34.58483099010701	   90.00000000999999	    0.00000000000000	    0.00000000000000	
    0.40000000000000	  -26.24480503189750	   -2.46706892755884	   -6.75361225549201	   -0.26514439825519	    0.88064798544792	    0.39411871303727	   36.55529954924507	    1.27179993016895	    0.22937174465931	   39.06166416398621	    5.85288448000000	    0.68175465023211	   23.99485107449888	    4.11164496023460	    0.00000000000000	   44.01637546707478	  -14.82628141251420	   -3.91770298121953	   78.58512143614534	    4.70865390000000	    1.37156911175641	    9.94327924001005	  -13.53268305723105	  -10.00000000000000	   -9.67784477721257	    9.52796063414747	    1.30210743868811	   -3.19836629216398	  -12.74673215100233	  -24.59861179800114	   80.73503127637142	   90.00000000999999	    0.00000000000000	    0.00000000000000	  -43.19423354017012	  -61.28108900050263	  -46.19851226002940	   34.41052919648975	   90.00000000999999	    0.00000000000000	    0.00000000000000	
    0.40500000000000	  -26.73688535460185	   -2.26097369216259	   -6.82062759495833	   -0.25906465958374	    0.88389060790924	    0.39339841767370	   35.77904189538439	    1.09107104589711	    0.01658265819860	   37.15043244581314	    5.85288448000000	    0.64839736399614	   23.19884394304107	    4.76798571527634	    0.00000000000000	   45.30587217401734	  -14.62335463572676	   -3.81391598351307	   77.68698091423371	    4.70865390000000	    1.35589360254511	   10.46142782016615	  -13.50342694350120	  -10.00000000000000	   -9.40060455781820	    9.20950496605522	    1.39310555139157	   -2.95845691364658	  -12.99593642931211	  -24.41414620925301	   81.41918256024567	   90.00000000999999	    0.00000000000000	    0.00000000000000	  -44.99059344329696	  -60.56371107067405	  -47.39939153567835	   34.26173994274107	   90.00000000999999	    0.00000000000000	    0.00000000000000	
    0.41000000000000	  -27.22414600936727	   -2.05213263759903	   -6.89056925999302	   -0.25288535215792	    0.88734630021128	    0.39260515242091	   34.98861447630881	    0.88246748247953	   -0.28741675469973	   35.22048856445419	    5.85288448000000	    0.61471348889574	   22.27812220504067	    5.48086996501222	    0.00000000000000	   46.50860539328847	  -14.41358377075727	   -3.76589929945257	   76.55362542625993	    4.70865390000000	    1.33611281772009	   10.96179938701083	  -13.43250350117532	  -10.00000000000000	   -9.12567751947137	    8.88603753739914	    1.48922454912394	   -2.72143029120147	  -13.23426264022413	  -24.24288876568624	   82.08013374886274	   90.00000000999999	    0.00000000000000	    0.00000000000000	  -46.68636374109350	  -59.77314216210385	  -48.51776167882029	   34.13626723181750	   90.00000000999999	    0.00000000000000	    0.00000000000000	
    0.41500000000000	  -27.70132383864327	   -1.84245226593490	   -6.96615128593126	   -0.24660001753561	    0.89099667161377	    0.39174302914361	   34.18879957705370	    0.64644235345895	   -0.68425659928251	   33.29707878822535	    5.85288448000000	    0.58114365543646	   21.23483285899547	    6.23796086443620	    0.00000000000000	   47.61654660601828	  -14.19911660323279	   -3.77268404898148	   75.18950231939223	    4.70865390000000	    1.31230437813166	   11.43720895200874	  -13.31661012809446	  -10.00000000000000	   -8.85692270924315	    8.55892864143339	    1.59247159009542	   -2.48717406195970	  -13.46172543631911	  -24.08369876836030	   82.71544572986630	   90.00000000999999	    0.00000000000000	    0.00000000000000	  -48.27626080608087	  -58.91171198445547	  -49.54978784479146	   34.03161939921475	   90.00000000999999	    0.00000000000000	    0.00000000000000	
    0.42000000000000	  -28.16289145660813	   -1.63398440154508	   -7.05008664266507	   -0.24020261980609	    0.89482049689908	    0.39081624461120	   33.38446703613320	    0.38356259111177	   -1.17360724089499	   31.40699980241645	    5.85288448000000	    0.54815555400537	   20.07337380615918	    7.02496062500452	    0.00000000000000	   48.62217586087582	  -13.98211517834022	   -3.83365909705277	   73.60078588964284	    4.70865390000000	    1.28457604557374	   11.88186910977652	  -13.15152398690649	  -10.00000000000000	   -8.59836756526213	    8.22974460511695	    1.70473569556314	   -2.25559134746879	  -13.67856102575692	  -23.93515771012909	   83.32316025427839	   90.00000000999999	    0.00000000000000	    0.00000000000000	  -49.75662572833316	  -57.98213803587587	  -50.49303730882444	   33.94507239895300	   90.00000000999999	    0.00000000000000	    0.00000000000000	
    0.42500000000000	  -28.60313786207168	   -1.42890960012800	   -7.14502334883802	   -0.23368758937270	    0.89879396998986	    0.38982901434079	   32.58042468240100	    0.09449868130435	   -1.75302537438287	   29.57810568103093	    5.85288448000000	    0.51623532990457	   18.80044124593395	    7.82597426701258	    0.00000000000000	   49.51863047510404	  -13.76475571688351	   -3.94865693985361	   71.79538905355595	    4.70865390000000	    1.25306592649334	   12.29146239121305	  -12.93220590094608	  -10.00000000000000	   -8.35413520400109	    7.90024894353992	    1.82775135390319	   -2.02660869867235	  -13.88521827482120	  -23.79562081493024	   83.90178196127971	   90.00000000999999	    0.00000000000000	    0.00000000000000	  -51.12544035381051	  -56.98747644664851	  -51.34644623961816	   33.87374302141481	   90.00000000999999	    0.00000000000000	    0.00000000000000	
    0.43000000000000	  -29.01625914057625	   -1.22951419319413	   -7.25348040009742	   -0.22704986532203	    0.90289100585404	    0.38878550884033	   31.78126606869903	   -0.21998716558450	   -2.41785290296890	   27.83875965921523	    5.85288448000000	    0.48587801497502	   17.42501166988269	    8.62395564034684	    0.00000000000000	   50.29985505942238	  -13.54922440539199	   -4.11801434639078	   69.78296392888626	    4.70865390000000	    1.21794248212528	   12.66317325531854	  -12.65294110987174	  -10.00000000000000	   -8.12836261245802	    7.57239593016886	    1.96306560286898	   -1.80018439729949	  -14.08234491684854	  -23.66327274352281	   84.45024640538416	   90.00000000999999	    0.00000000000000	    0.00000000000000	  -52.38230910185975	  -55.93107561674780	  -52.11025587260742	   33.81466834527667	   90.00000000999999	    0.00000000000000	    0.00000000000000	
    0.43500000000000	  -29.39645755494324	   -1.03816118089125	   -7.37778501200447	   -0.22028493606066	    0.90708358456720	    0.38768979441863	   30.99122036393278	   -0.55905314226836	   -3.16117599303772	   26.21724350776130	    5.85288448000000	    0.45757721923682	   15.95825459393004	    9.40122307951007	    0.00000000000000	   50.96074834780889	  -13.33770862890006	   -4.34260341395245	   67.57488871293606	    4.70865390000000	    1.17940429947602	   12.99567912199341	  -12.30751529368721	  -10.00000000000000	   -7.92511158844525	    7.24831648967533	    2.11201000672326	   -1.57631798536776	  -14.27076892635174	  -23.53618679110467	   84.96787662937240	   90.00000000999999	    0.00000000000000	    0.00000000000000	  -53.52840589043273	  -54.81653510097106	  -52.78592000548512	   33.76488742551285	   90.00000000999999	    0.00000000000000	    0.00000000000000	
